<?xml version="1.0" standalone="no"?>
<!DOCTYPE svg PUBLIC "-//W3C//DTD SVG 20010904//EN"
 "http://www.w3.org/TR/2001/REC-SVG-20010904/DTD/svg10.dtd">
<svg version="1.0" xmlns="http://www.w3.org/2000/svg"
 width="449.000000pt" height="449.000000pt" viewBox="0 0 449.000000 449.000000"
 preserveAspectRatio="xMidYMid meet">
<metadata>
Created by potrace 1.11, written by Peter Selinger 2001-2013
</metadata>
<g transform="translate(0.000000,449.000000) scale(0.100000,-0.100000)"
fill="#000000" stroke="none">
<path d="M50 2245 l0 -1694 1931 0 1931 0 82 86 c44 48 148 154 229 237 82 83
166 170 188 193 l39 43 0 1095 0 1095 -555 0 -555 0 0 -805 0 -805 -22 0 c-37
-1 -380 -1 -420 -1 l-38 1 0 1125 0 1125 -177 -109 c-194 -118 -386 -236 -558
-342 -60 -37 -151 -93 -202 -123 l-91 -56 -401 0 -401 0 -208 134 c-114 73
-243 156 -287 184 -44 28 -85 56 -92 62 -7 5 -14 10 -17 10 -3 0 -63 37 -133
83 -70 46 -154 100 -185 120 l-58 37 0 -1695z m607 944 l286 -191 436 0 c240
1 461 1 491 1 53 1 64 6 245 120 105 66 226 142 270 170 44 28 95 60 113 72
l32 21 0 -1005 0 -1005 560 0 560 0 0 489 0 489 248 0 247 0 0 -554 c0 -305
-4 -558 -8 -562 -4 -5 -87 -89 -185 -188 l-177 -181 -1707 0 -1708 0 0 1257
c0 692 2 1258 5 1258 3 0 134 -86 292 -191z m3478 -207 c6 -1 10 -73 10 -192
0 -183 -1 -190 -20 -191 -64 -3 -452 -4 -462 -1 -10 3 -13 51 -13 196 l0 192
238 -2 c130 0 242 -2 247 -2z"/>
<path d="M654 2587 c-2 -7 -3 -87 -2 -177 l3 -164 270 -1 270 0 2 178 1 177
-269 0 c-211 0 -271 -3 -275 -13z"/>
<path d="M1712 2423 l3 -177 255 -1 c140 -1 262 2 270 6 13 6 16 34 15 176 l0
168 -273 3 -272 2 2 -177z"/>
<path d="M1343 2056 c-3 -5 -7 -57 -8 -116 -2 -116 -12 -143 -71 -189 -92 -73
-235 -9 -260 114 -2 11 -6 32 -10 48 l-6 27 -117 0 -117 0 1 -57 c9 -343 400
-531 667 -321 l38 29 46 -35 c73 -56 145 -79 244 -79 127 1 223 42 308 133 62
66 109 183 108 270 l-1 45 -131 3 -131 3 4 -24 c12 -61 -43 -155 -103 -177
-72 -28 -166 3 -205 67 -20 32 -24 53 -26 133 -1 52 -2 104 -2 115 -1 19 -8
20 -112 20 -61 0 -113 -4 -116 -9z"/>
</g>
</svg>
