<?xml version="1.0" standalone="no"?>
<!DOCTYPE svg PUBLIC "-//W3C//DTD SVG 20010904//EN"
 "http://www.w3.org/TR/2001/REC-SVG-20010904/DTD/svg10.dtd">
<svg version="1.0" xmlns="http://www.w3.org/2000/svg"
 width="431.000000pt" height="431.000000pt" viewBox="0 0 431.000000 431.000000"
 preserveAspectRatio="xMidYMid meet">
<metadata>
Created by potrace 1.11, written by Peter Selinger 2001-2013
</metadata>
<g transform="translate(0.000000,431.000000) scale(0.100000,-0.100000)"
fill="#000000" stroke="none">
<path d="M0 2155 l0 -2155 2155 0 2155 0 0 2155 0 2155 -2155 0 -2155 0 0
-2155z m988 926 l303 -191 287 0 287 0 355 214 355 215 3 -775 2 -774 165 0
165 0 0 555 0 555 390 0 390 0 0 -751 0 -751 -187 -194 -188 -194 -1352 0
-1353 0 0 1165 0 1165 38 -23 c20 -14 173 -110 340 -216z"/>
<path d="M830 2070 l0 -860 1198 0 1197 0 128 128 127 128 -2 379 -3 380 -172
3 -173 2 0 -340 0 -340 -390 0 -390 0 0 691 c0 570 -2 690 -13 686 -8 -3 -105
-62 -216 -131 l-203 -126 -339 0 -339 0 -199 130 c-110 72 -202 130 -205 130
-3 0 -6 -387 -6 -860z m570 240 l0 -120 -175 0 -175 0 0 120 0 120 175 0 175
0 0 -120z m760 0 l0 -120 -175 0 -175 0 0 120 0 120 175 0 175 0 0 -120z
m-528 -318 c5 -106 26 -145 89 -163 33 -10 45 -10 74 4 42 20 75 70 75 115 l0
32 90 0 90 0 0 -45 c0 -24 -9 -68 -20 -98 -68 -182 -279 -252 -430 -143 l-46
33 -34 -28 c-49 -41 -121 -63 -190 -56 -145 13 -255 129 -268 282 l-5 65 87 0
86 0 0 -27 c0 -47 37 -110 78 -129 32 -15 41 -15 76 -3 63 22 80 55 84 160 l4
89 78 0 78 0 4 -88z"/>
<path d="M3130 2530 l0 -130 175 0 175 0 0 130 0 130 -175 0 -175 0 0 -130z"/>
</g>
</svg>
