<?xml version="1.0" encoding="UTF-8"?>
<svg width="82px" height="13px" viewBox="0 0 82 13" version="1.1" xmlns="http://www.w3.org/2000/svg" xmlns:xlink="http://www.w3.org/1999/xlink">
    <!-- Generator: Sketch 52.2 (67145) - http://www.bohemiancoding.com/sketch -->
    <title>logo-name</title>
    <desc>Created with Sketch.</desc>
    <g id="Page-1" stroke="none" stroke-width="1" fill="none" fill-rule="evenodd">
        <g id="logo-name" fill="#FFFFFF">
            <path d="M33,6.25 C34.18,5.94 36.57,4.25 36.57,2.6 L32.94,2.6 C32.94,4.6 32.24,5.6 31.81,5.6 L31.81,0.19 L28.4,0.19 L28.4,9.75 L31.82,9.75 L31.82,6.62 C31.82,6.69 33.53,9.75 33.53,9.75 L37.27,9.75 C37.27,9.75 35.8,7.21 35.27,6.25 L33,6.25 Z" id="Path"></path>
            <polygon id="Path" points="4.37 9.35 4.37 0.2 0.68 0.2 0.68 9.75 8.05 9.75 7.91 7.13"></polygon>
            <path d="M14,5.65 C14,8.04 13.34,8.73 13.07,8.73 C12.6,8.73 12.65,7.54 12.64,7.15 C12.64,5.65 12.58,2.6 12.58,2.6 L9,2.6 C9,2.6 9,5.86 9.05,7.46 C9.03885716,8.12593633 9.27794228,8.77182299 9.72,9.27 C10.1626578,9.71805493 10.7703153,9.96401153 11.4,9.95 C12.3222716,10.0714014 13.2426241,9.71306739 13.84,9 C14.0502922,8.67864965 14.2406505,8.3446877 14.41,8 L15.94,9.74 C16.5,9.74 17.07,9.74 17.63,9.74 L17.63,2.6 L14,2.6 L14,5.65 Z" id="Path"></path>
            <path d="M42.76,9 C42.76,8.89 41.56,4.6 41.07,2.64 L37.22,2.64 C37.22,2.64 39.14,7.59 39.94,9.78 L42.52,9.78 C42.4072464,10.2083083 42.1869487,10.6007135 41.88,10.92 C41.5373951,11.2179546 41.0715709,11.3312577 40.630392,11.2239439 C40.1892131,11.1166302 39.827474,10.8020279 39.66,10.38 L37.66,11.78 C38.591381,12.9358631 40.2629418,13.1640026 41.47,12.3 C42.148002,11.7231372 42.6734795,10.9881556 43,10.16 C44.17,7.62 46.34,2.6 46.34,2.6 L43.71,2.6 C43.5574654,4.75448847 43.2398668,6.89409991 42.76,9 Z" id="Path"></path>
            <path d="M70.15,2.82 C69.1493761,2.42581199 68.0594529,2.31508963 67,2.5 C65.09,2.89 64.13,4.05 64,4.65 L67.26,5.17 C67.212733,4.50135766 67.2496893,3.82942556 67.37,3.17 C67.5,2.71 68.11,2.64 68.37,3.3 C68.5785929,4.01059239 68.6731015,4.74978457 68.65,5.49 C68.04,5.55 67.44,5.59 66.84,5.67 C65.977147,5.75694768 65.1509183,6.06334081 64.44,6.56 C63.895163,6.95007459 63.6087375,7.60798092 63.6944221,8.27255879 C63.7801066,8.93713666 64.22404,9.50087722 64.85,9.74 C65.2482154,9.89923356 65.6713183,9.98723897 66.1,10 C67,10 68.64,9.79 69,8.14 L70.5,9.75 C71.03,9.75 71.5,9.75 72.11,9.75 C72.11,9.75 72.11,7.01 72.11,5.75 C72.1598876,4.45200253 71.3687592,3.26934634 70.15,2.82 Z M67.15,8.21 C66.96,7.57 67.24,5.91 68.65,5.91 C68.79,8.6 67.39,8.85 67.19,8.21 L67.15,8.21 Z" id="Shape" fill-rule="nonzero"></path>
            <path d="M61.23,0.9 L58.13,0.9 C58,1.48 58,2 57.85,2.6 L57,2.6 L57,3.37 L57.78,3.37 C57.78,4.53 57.78,7.67 57.78,8.08 C57.8142073,8.9376088 58.4219966,9.66449189 59.26,9.85 C59.829371,9.98589437 60.4157721,10.0364462 61,10 C61.5612451,10.0020315 62.0975172,9.76814603 62.477885,9.35544699 C62.8582528,8.94274795 63.0477098,8.38921724 63,7.83 L62.49,7.73 C62.4628136,8.03211139 62.4194177,8.33254424 62.36,8.63 C62.3020425,8.87182853 62.078122,9.03660021 61.83,9.02 C61.5835014,9.03420238 61.3649415,8.86278288 61.32,8.62 C61.2457748,8.32896092 61.2055065,8.03030453 61.2,7.73 C61.2,6.35 61.29,3.45 61.3,3.4 L63.18,3.4 L63.18,2.6 L61.26,2.6 C61.26,2 61.23,1.49 61.23,0.9 Z" id="Path"></path>
            <path d="M81.82,4.68 C81.7927615,4.08800972 81.5633336,3.52326411 81.17,3.08 C80.7247177,2.63589736 80.1188212,2.39065356 79.49,2.4 C78.5651327,2.2956486 77.6514224,2.67321482 77.07,3.4 C76.8528042,3.71891022 76.6589649,4.05311589 76.49,4.4 L75,2.6 C74.44,2.6 73.88,2.6 73.32,2.6 L73.32,9.75 L76.98,9.75 L76.98,5.66 C76.98,4 77.59,3.66 77.83,3.66 C78.4,3.66 78.26,5.41 78.27,5.51 L81.82,4.68 Z" id="Path"></path>
            <path d="M27.16,4.74 C27.0171806,4.03168103 26.5713613,3.42142009 25.94,3.07 C25.2632892,2.69276014 24.5045747,2.48677429 23.73,2.47 C22.6609616,2.35350245 21.5806024,2.53702501 20.61,3 C19.4674002,3.56211662 18.7454061,4.72662329 18.75,6 L18.75,6.2 C18.7453215,6.21972639 18.7453215,6.24027361 18.75,6.26 C18.7453215,6.27972639 18.7453215,6.30027361 18.75,6.32 L18.75,6.4 L18.75,6.56 C18.7477887,7.83270146 19.4690645,8.99604952 20.61,9.56 C21.5796235,10.0264006 22.6600275,10.2133936 23.73,10.1 C24.5053631,10.0797598 25.2640345,9.87035281 25.94,9.49 C26.569932,9.14179079 27.0157642,8.53516662 27.16,7.83 C27.16,7.83 23.96,7.23 23.67,7.19 C23.67,7.8 23.78,8.33 23.81,8.85 C23.8276808,9.03813416 23.7856971,9.22706093 23.69,9.39 C23.5938196,9.55360102 23.4280088,9.66414159 23.24,9.69 C22.57,9.69 22.54,8.59 22.53,8.17 C22.53,7.55 22.53,6.92 22.53,6.3 C22.53,5.67 22.53,5.05 22.53,4.42 C22.53,4 22.53,2.93 23.24,2.91 C23.4256547,2.93495761 23.5905741,3.04123903 23.69,3.2 C23.7844489,3.36342765 23.8263432,3.55195188 23.81,3.74 C23.81,4.27 23.72,4.8 23.67,5.4 C24,5.34 27.16,4.74 27.16,4.74 Z" id="Path"></path>
            <path d="M53.89,4.42 C53.3,4 52.69,3.49 52.12,3 C51.6201648,2.64369254 51.3283082,2.06372106 51.34,1.45 C51.3617279,1.236239 51.4765237,1.04290575 51.6538039,0.921507314 C51.8310842,0.80010888 52.0528429,0.762975464 52.26,0.82 C52.5994895,0.885271036 52.9044882,1.06968885 53.12,1.34 C53.5985665,2.013488 54.0136755,2.72988581 54.36,3.48 C54.76,2.8 55.23,2.04 55.62,1.36 C55.69,1.25 55.75,1.14 55.82,1.01 L55.58,0.88 C54.1833839,0.23736705 52.6377663,-0.0115914845 51.11,0.16 C50.3716359,0.220024138 49.6534665,0.43105024 49,0.78 C48.4110636,1.04449522 47.9688376,1.55537302 47.7914767,2.17613619 C47.6141158,2.79689937 47.719693,3.46429237 48.08,4 C48.6056045,4.73091606 49.2554725,5.36386047 50,5.87 C50.7415544,6.36175642 51.414159,6.95028547 52,7.62 C52.2299441,7.90357626 52.3599889,8.25504854 52.37,8.62 C52.37,9.25 51.97,9.62 51.28,9.46 C50.773945,9.34867485 50.321822,9.06609796 50,8.66 C49.3603827,7.88383725 48.7788091,7.06161246 48.26,6.2 L47.67,7.84 L47.16,9.3 C47.2667522,9.35397925 47.3769988,9.40075052 47.49,9.44 C49.0231961,10.0051503 50.6617165,10.2270332 52.29,10.09 C53.1038033,10.0357038 53.89894,9.8216285 54.63,9.46 C55.2521456,9.19565817 55.7241144,8.66779656 55.9174671,8.02006481 C56.1108199,7.37233306 56.0054381,6.67212801 55.63,6.11 C55.1473199,5.45443238 54.5593584,4.88336633 53.89,4.42 Z" id="Path"></path>
        </g>
    </g>
</svg>