<?xml version="1.0" encoding="UTF-8"?><!DOCTYPE svg PUBLIC "-//W3C//DTD SVG 1.1//EN" "http://www.w3.org/Graphics/SVG/1.1/DTD/svg11.dtd"><svg xmlns="http://www.w3.org/2000/svg"><symbol id="icon-check" viewBox="0 0 512 512"><title/><path d="M448 0H64C28.8 0 0 28.8 0 64v384c0 35.2 28.8 64 64 64h384c35.2 0 64-28.8 64-64V64c0-35.2-28.8-64-64-64zM224 397.255L105.373 278.627l45.255-45.254L224 306.745l153.373-153.373 45.254 45.255L224 397.255z"/></symbol><symbol id="icon-cross" viewBox="0 0 32 32"><title>cross</title><path d="M25.333 5.334q.573 0 .953.38t.38.953q0 .563-.385.948L17.885 16l8.396 8.385q.385.385.385.948 0 .573-.38.953t-.953.38q-.563 0-.948-.385L16 17.885l-8.385 8.396q-.385.385-.948.385-.573 0-.953-.38t-.38-.953q0-.563.385-.948L14.115 16 5.719 7.615q-.385-.385-.385-.948 0-.573.38-.953t.953-.38q.563 0 .948.385L16 14.115l8.385-8.396q.385-.385.948-.385z"/></symbol><symbol id="icon-search" viewBox="0 0 32 32"><title>search</title><path d="M31.008 27.231l-7.58-6.447c-.784-.705-1.622-1.029-2.299-.998a11.954 11.954 0 0 0 2.87-7.787c0-6.627-5.373-12-12-12s-12 5.373-12 12 5.373 12 12 12c2.972 0 5.691-1.081 7.787-2.87-.031.677.293 1.515.998 2.299l6.447 7.58c1.104 1.226 2.907 1.33 4.007.23s.997-2.903-.23-4.007zM12 20a8 8 0 1 1 0-16 8 8 0 0 1 0 16z"/></symbol></svg>